{"title":"Treasure.Planet.2002.SWESUB.DVDRip.XviD.-Zen_Bud","uid":5722529,"size":733997056,"categoryP":"video","categoryS":"movies","magnet":"?xt=urn:btih:e780defc93ae95dcb55389a8d876b4160afbbcd3&amp;dn=Treasure.Planet.2002.SWESUB.DVDRip.XviD.-Zen_Bud&amp;tr=udp%3A%2F%2Ftracker.openbittorrent.com%3A80&amp;tr=udp%3A%2F%2Fopen.demonii.com%3A1337&amp;tr=udp%3A%2F%2Ftracker.coppersurfer.tk%3A6969&amp;tr=udp%3A%2F%2Fexodus.desync.com%3A6969","seeders":1,"leechers":0,"uploader":"ahilahc","files":1,"time":1280333199,"description":"General\nComplete name                    : Treasure.Planet.avi\nFormat                           : AVI\nFile size                        : 700 MiB\nDuration                         : 1h 35mn\nOverall bit rate                 : 1 024 Kbps\n\n\nVideo\n\nFormat                           : MPEG-4 Visual\nCodec ID/Hint                    : XviD\nDuration                         : 1h 35mn\nBit rate                         : 879 Kbps\nWidth                            : 544 pixels\nHeight                           : 320 pixels\nDisplay aspect ratio             : 16:9\nStream size                      : 601 MiB (86%)\nWriting library                  : XviD 1.2.1 (UTC 2008-12-04)\n\nAudio\n\nFormat                           : MPEG Audio\nCodec ID/Hint                    : MP3\nDuration                         : 1h 35mn\nBit rate                         : 132 Kbps\nChannel(s)                       : 2 channels\nSampling rate                    : 48.0 KHz\nVideo delay                      : 288ms\nStream size                      : 90.5 MiB (13%)\nWriting library                  : LAME3.89 (beta)","torrent":{"xt":"urn:btih:e780defc93ae95dcb55389a8d876b4160afbbcd3","amp;dn":"Treasure.Planet.2002.SWESUB.DVDRip.XviD.-Zen_Bud","amp;tr":["udp%3A%2F%2Ftracker.openbittorrent.com%3A80","udp%3A%2F%2Fopen.demonii.com%3A1337","udp%3A%2F%2Ftracker.coppersurfer.tk%3A6969","udp%3A%2F%2Fexodus.desync.com%3A6969"],"infoHash":"e780defc93ae95dcb55389a8d876b4160afbbcd3","infoHashBuffer":{"type":"Buffer","data":[231,128,222,252,147,174,149,220,181,83,137,168,216,118,180,22,10,251,188,211]},"announce":[],"urlList":[]}}